<svg xmlns="http://www.w3.org/2000/svg" width="32" height="32" viewBox="0 0 32 32" fill="none">
  <circle cx="16" cy="16" r="15" fill="#4A90E2" stroke="#2C3E50" stroke-width="2"/>
  <path d="M16 8C19.3137 8 22 10.6863 22 14C22 15.7401 21.1956 17.2892 19.9246 18.3265C19.9726 18.5466 20 18.7773 20 19C20 20.6569 18.6569 22 17 22H15C13.3431 22 12 20.6569 12 19C12 18.7773 12.0274 18.5466 12.0754 18.3265C10.8044 17.2892 10 15.7401 10 14C10 10.6863 12.6863 8 16 8Z" fill="white"/>
  <path d="M14 15C14.5523 15 15 14.5523 15 14C15 13.4477 14.5523 13 14 13C13.4477 13 13 13.4477 13 14C13 14.5523 13.4477 15 14 15Z" fill="#2C3E50"/>
  <path d="M18 15C18.5523 15 19 14.5523 19 14C19 13.4477 18.5523 13 18 13C17.4477 13 17 13.4477 17 14C17 14.5523 17.4477 15 18 15Z" fill="#2C3E50"/>
  <path d="M16 18C17.1046 18 18 17.1046 18 16H14C14 17.1046 14.8954 18 16 18Z" fill="#2C3E50"/>
</svg>